<?xml version="1.0" encoding="UTF-8" standalone="no"?>
<svg width="195px" height="195px" viewBox="0 0 195 195" version="1.1" xmlns="http://www.w3.org/2000/svg" xmlns:xlink="http://www.w3.org/1999/xlink" xmlns:sketch="http://www.bohemiancoding.com/sketch/ns">
    <!-- Generator: Sketch 3.4.4 (17249) - http://www.bohemiancoding.com/sketch -->
    <title>Rectangle 1 + SR</title>
    <desc>Created with Sketch.</desc>
    <defs></defs>
    <g id="Page-1" stroke="none" stroke-width="1" fill="none" fill-rule="evenodd" sketch:type="MSPage">
        <g id="Rectangle-1-+-SR" sketch:type="MSLayerGroup">
            <rect id="Rectangle-1" fill="#14387F" sketch:type="MSShapeGroup" x="0" y="0" width="195" height="195"></rect>
            <path d="M28.09375,124.109375 L17.8984375,135.78125 C28.8203671,145.156297 41.8749241,149.84375 57.0625,149.84375 C80.5469924,149.562499 92.5468724,139.625098 93.0625,120.03125 C93.0625,112.765589 90.7890852,106.390652 86.2421875,100.90625 C81.6484145,95.3280971 74.546923,91.8828191 64.9375,90.5703125 C60.0624756,89.9609345 56.2187641,89.4218773 53.40625,88.953125 C48.3437247,88.0156203 44.664074,86.3281372 42.3671875,83.890625 C40.070301,81.499988 38.921875,78.8281398 38.921875,75.875 C39.0156255,70.9531004 40.7265459,67.2500124 44.0546875,64.765625 C47.2422034,62.374988 51.2265386,61.1796875 56.0078125,61.1796875 C65.2422337,61.3671884 73.7030866,63.9921622 81.390625,69.0546875 L90.0390625,56.2578125 C80.6171404,49.4609035 69.5313137,45.9218764 56.78125,45.640625 C46.187447,45.7343755 38.0078413,48.4999728 32.2421875,53.9375 C26.2890327,59.4219024 23.3125,66.6405802 23.3125,75.59375 C23.3125,83.0469123 25.6796638,89.374974 30.4140625,94.578125 C35.0078355,99.6406503 41.7108934,102.89843 50.5234375,104.351562 C55.4453371,105.054691 59.9687294,105.687497 64.09375,106.25 C73.093795,107.796883 77.5468755,112.390587 77.453125,120.03125 C77.2656241,129.359422 70.5156916,134.117187 57.203125,134.304688 C45.9530687,134.210937 36.2500408,130.812534 28.09375,124.109375 L28.09375,124.109375 Z M116.984375,60.3359375 L141.3125,60.3359375 C146.281275,60.3359375 150.078112,61.3906145 152.703125,63.5 C156.031267,65.890637 157.742187,69.7577858 157.835938,75.1015625 C157.835938,79.5547098 156.406264,83.3046723 153.546875,86.3515625 C150.64061,89.6328289 146.281279,91.320312 140.46875,91.4140625 L116.984375,91.4140625 L116.984375,60.3359375 Z M101.445313,149 L116.984375,149 L116.984375,105.195312 L136.8125,105.195312 L157.976562,149 L176.46875,149 L152.703125,103.507812 C165.73444,98.4921624 172.343749,89.0235071 172.53125,75.1015625 C172.249999,65.6327652 168.851595,58.3437755 162.335938,53.234375 C156.945286,48.7343525 149.984418,46.484375 141.453125,46.484375 L101.445313,46.484375 L101.445313,149 Z" id="SR" fill="#FFFFFF" sketch:type="MSShapeGroup"></path>
        </g>
    </g>
</svg>